<svg width="101" height="17" viewBox="0 0 101 17" fill="none" xmlns="http://www.w3.org/2000/svg">
<path d="M10.004 1.45453H12.6389V10.9574C12.6389 11.999 12.3927 12.9152 11.9003 13.7059C11.4126 14.4967 10.7261 15.1146 9.84064 15.5596C8.95523 16 7.92066 16.2202 6.73695 16.2202C5.5485 16.2202 4.51157 16 3.62615 15.5596C2.74074 15.1146 2.05418 14.4967 1.5665 13.7059C1.07881 12.9152 0.834961 11.999 0.834961 10.9574V1.45453H3.4699V10.7372C3.4699 11.3433 3.60248 11.883 3.86763 12.3565C4.13752 12.83 4.51631 13.2017 5.00399 13.4716C5.49168 13.7367 6.06934 13.8693 6.73695 13.8693C7.40456 13.8693 7.98222 13.7367 8.4699 13.4716C8.96233 13.2017 9.34112 12.83 9.60627 12.3565C9.87142 11.883 10.004 11.3433 10.004 10.7372V1.45453Z" fill="white"/>
<path d="M17.9603 9.60794V16H15.3893V5.09089H17.8467V6.94459H17.9745C18.2255 6.33379 18.6256 5.84847 19.1748 5.48862C19.7288 5.12877 20.413 4.94885 21.2274 4.94885C21.9802 4.94885 22.636 5.10983 23.1947 5.4318C23.7581 5.75377 24.1937 6.22015 24.5015 6.83095C24.814 7.44175 24.9679 8.18275 24.9632 9.05396V16H22.3921V9.45169C22.3921 8.72252 22.2027 8.15197 21.824 7.74004C21.4499 7.32811 20.9314 7.12214 20.2686 7.12214C19.8187 7.12214 19.4186 7.22157 19.0683 7.42044C18.7226 7.61457 18.4504 7.89629 18.2515 8.26561C18.0574 8.63493 17.9603 9.08237 17.9603 9.60794Z" fill="white"/>
<path d="M33.0242 5.09089V7.07953H26.7529V5.09089H33.0242ZM28.3012 2.47726H30.8722V12.7187C30.8722 13.0644 30.9243 13.3295 31.0285 13.5142C31.1374 13.6941 31.2794 13.8172 31.4546 13.8835C31.6298 13.9498 31.824 13.9829 32.037 13.9829C32.198 13.9829 32.3448 13.9711 32.4774 13.9474C32.6147 13.9238 32.7188 13.9024 32.7899 13.8835L33.2231 15.8934C33.0858 15.9408 32.8893 15.9929 32.6336 16.0497C32.3827 16.1065 32.0749 16.1397 31.7103 16.1491C31.0664 16.1681 30.4864 16.071 29.9703 15.8579C29.4542 15.6401 29.0446 15.304 28.7416 14.8494C28.4433 14.3949 28.2965 13.8267 28.3012 13.1449V2.47726Z" fill="white"/>
<path d="M35.1744 16V5.09089H37.7455V16H35.1744ZM36.4671 3.5426C36.0599 3.5426 35.7095 3.40765 35.4159 3.13777C35.1224 2.86315 34.9756 2.53407 34.9756 2.15055C34.9756 1.76229 35.1224 1.43322 35.4159 1.16333C35.7095 0.888714 36.0599 0.751404 36.4671 0.751404C36.879 0.751404 37.2294 0.888714 37.5182 1.16333C37.8118 1.43322 37.9585 1.76229 37.9585 2.15055C37.9585 2.53407 37.8118 2.86315 37.5182 3.13777C37.2294 3.40765 36.879 3.5426 36.4671 3.5426Z" fill="white"/>
<path d="M45.8367 5.09089V7.07953H39.5654V5.09089H45.8367ZM41.1137 2.47726H43.6847V12.7187C43.6847 13.0644 43.7368 13.3295 43.841 13.5142C43.9499 13.6941 44.0919 13.8172 44.2671 13.8835C44.4423 13.9498 44.6365 13.9829 44.8495 13.9829C45.0105 13.9829 45.1573 13.9711 45.2899 13.9474C45.4272 13.9238 45.5313 13.9024 45.6024 13.8835L46.0356 15.8934C45.8983 15.9408 45.7018 15.9929 45.4461 16.0497C45.1952 16.1065 44.8874 16.1397 44.5228 16.1491C43.8789 16.1681 43.2989 16.071 42.7828 15.8579C42.2667 15.6401 41.8571 15.304 41.5541 14.8494C41.2558 14.3949 41.109 13.8267 41.1137 13.1449V2.47726Z" fill="white"/>
<path d="M50.7923 1.45453V16H48.2213V1.45453H50.7923Z" fill="white"/>
<path d="M58.2657 16.2131C57.172 16.2131 56.2274 15.9858 55.4319 15.5312C54.6412 15.072 54.0328 14.4233 53.6066 13.5852C53.1805 12.7424 52.9674 11.7505 52.9674 10.6094C52.9674 9.4872 53.1805 8.50235 53.6066 7.65481C54.0375 6.80254 54.6388 6.13966 55.4106 5.66618C56.1824 5.18796 57.0891 4.94885 58.1308 4.94885C58.8031 4.94885 59.4376 5.05775 60.0342 5.27555C60.6355 5.48862 61.1658 5.82006 61.6251 6.26987C62.0891 6.71968 62.4537 7.2926 62.7188 7.98862C62.984 8.67991 63.1166 9.50377 63.1166 10.4602V11.2486H54.1748V9.51561H60.6521C60.6473 9.02318 60.5408 8.58521 60.3325 8.20169C60.1241 7.81343 59.833 7.50803 59.4589 7.28549C59.0896 7.06296 58.6587 6.95169 58.1663 6.95169C57.6407 6.95169 57.1791 7.07953 56.7813 7.33521C56.3836 7.58616 56.0735 7.9176 55.8509 8.32953C55.6331 8.73673 55.5219 9.18417 55.5171 9.67186V11.1846C55.5171 11.8191 55.6331 12.3636 55.8651 12.8182C56.0972 13.268 56.4215 13.6136 56.8382 13.8551C57.2548 14.0918 57.7425 14.2102 58.3012 14.2102C58.6753 14.2102 59.0138 14.1581 59.3169 14.054C59.6199 13.9451 59.8827 13.7864 60.1052 13.5781C60.3277 13.3698 60.4958 13.1117 60.6095 12.804L63.01 13.0738C62.8585 13.7083 62.5697 14.2623 62.1436 14.7358C61.7222 15.2045 61.1824 15.5691 60.5242 15.8295C59.8661 16.0852 59.1133 16.2131 58.2657 16.2131Z" fill="white"/>
<path d="M69.3399 16.1917C68.4829 16.1917 67.7159 15.9716 67.0388 15.5312C66.3617 15.0909 65.8267 14.4517 65.4337 13.6136C65.0407 12.7756 64.8442 11.7576 64.8442 10.5596C64.8442 9.34752 65.0431 8.32479 65.4408 7.49146C65.8432 6.65339 66.3854 6.02129 67.0672 5.59515C67.749 5.16428 68.509 4.94885 69.347 4.94885C69.9862 4.94885 70.5118 5.05775 70.9237 5.27555C71.3357 5.48862 71.6624 5.74667 71.9038 6.0497C72.1453 6.348 72.3324 6.62972 72.4649 6.89487H72.5715V1.45453H75.1496V16H72.6212V14.2812H72.4649C72.3324 14.5464 72.1406 14.8281 71.8896 15.1264C71.6387 15.42 71.3073 15.6709 70.8953 15.8792C70.4834 16.0876 69.9649 16.1917 69.3399 16.1917ZM70.0573 14.0824C70.6018 14.0824 71.0658 13.9356 71.4493 13.642C71.8328 13.3437 72.124 12.9294 72.3229 12.3991C72.5217 11.8688 72.6212 11.2509 72.6212 10.5454C72.6212 9.83994 72.5217 9.22678 72.3229 8.70595C72.1288 8.18512 71.8399 7.78029 71.4564 7.49146C71.0776 7.20263 70.6112 7.05822 70.0573 7.05822C69.4843 7.05822 69.0061 7.20737 68.6226 7.50566C68.2391 7.80396 67.9503 8.21589 67.7561 8.74146C67.562 9.26703 67.4649 9.86835 67.4649 10.5454C67.4649 11.2273 67.562 11.8357 67.7561 12.3707C67.955 12.901 68.2462 13.3201 68.6297 13.6278C69.018 13.9309 69.4938 14.0824 70.0573 14.0824Z" fill="white"/>
<path d="M92.1329 1.45453H94.7678V10.9574C94.7678 11.999 94.5216 12.9152 94.0292 13.7059C93.5415 14.4967 92.855 15.1146 91.9695 15.5596C91.0841 16 90.0496 16.2202 88.8659 16.2202C87.6774 16.2202 86.6405 16 85.7551 15.5596C84.8696 15.1146 84.1831 14.4967 83.6954 13.7059C83.2077 12.9152 82.9639 11.999 82.9639 10.9574V1.45453H85.5988V10.7372C85.5988 11.3433 85.7314 11.883 85.9965 12.3565C86.2664 12.83 86.6452 13.2017 87.1329 13.4716C87.6206 13.7367 88.1982 13.8693 88.8659 13.8693C89.5335 13.8693 90.1111 13.7367 90.5988 13.4716C91.0912 13.2017 91.47 12.83 91.7352 12.3565C92.0003 11.883 92.1329 11.3433 92.1329 10.7372V1.45453Z" fill="white"/>
<path d="M100.267 1.45453V16H97.6318V1.45453H100.267Z" fill="white"/>
</svg>
